<?xml version="1.0" standalone="no"?>
<!DOCTYPE svg PUBLIC "-//W3C//DTD SVG 20010904//EN"
 "http://www.w3.org/TR/2001/REC-SVG-20010904/DTD/svg10.dtd">
<svg version="1.0" xmlns="http://www.w3.org/2000/svg"
 width="512.000000pt" height="512.000000pt" viewBox="0 0 512.000000 512.000000"
 preserveAspectRatio="xMidYMid meet">
<metadata>
Created by potrace 1.14, written by Peter Selinger 2001-2017
</metadata>
<g transform="translate(0.000000,512.000000) scale(0.100000,-0.100000)"
fill="#000000" stroke="none">
<path d="M1350 2565 l0 -1595 678 0 c732 0 826 5 1027 54 318 78 563 213 781
431 136 136 224 259 303 425 203 426 199 969 -9 1395 -272 558 -846 885 -1551
885 l-119 0 0 -315 0 -315 80 0 c429 0 746 -173 906 -495 62 -126 90 -224 104
-371 19 -203 -15 -398 -100 -569 -89 -178 -213 -301 -395 -390 -178 -87 -324
-108 -730 -103 l-270 3 -3 1278 -2 1277 -350 0 -350 0 0 -1595z"/>
<path d="M2190 3845 l0 -315 65 0 65 0 0 315 0 315 -65 0 -65 0 0 -315z"/>
</g>
</svg>
