<svg width="132" height="72" viewBox="0 0 132 72" fill="none" xmlns="http://www.w3.org/2000/svg">
<path d="M0.466016 71V1.09999H11.066C12.1327 1.09999 13.1993 1.26666 14.266 1.6C15.3993 1.93333 16.366 2.5 17.166 3.3C18.0327 4.03333 18.7327 5 19.266 6.2C19.7994 7.4 20.066 8.86666 20.066 10.6V61.5C20.066 63.2333 19.7994 64.7 19.266 65.9C18.7327 67.1 18.0327 68.1 17.166 68.9C16.366 69.6333 15.3993 70.1667 14.266 70.5C13.1993 70.8333 12.1327 71 11.066 71H0.466016ZM7.26602 6.8V65.3H10.566C11.2993 65.3 11.9327 64.9667 12.466 64.3C12.9994 63.5667 13.266 62.3 13.266 60.5V11.6C13.266 9.8 12.9994 8.56666 12.466 7.9C11.9327 7.16666 11.2993 6.8 10.566 6.8H7.26602ZM36.1129 29.2V11.2C36.1129 9.4 35.8462 8.13333 35.3129 7.4C34.7796 6.6 34.1462 6.2 33.4129 6.2H32.8129C32.0796 6.2 31.4462 6.56667 30.9129 7.3C30.3796 8.03333 30.1129 9.36666 30.1129 11.3V20.2C30.1129 23.4 30.7796 26.2 32.1129 28.6C33.4462 31 34.9129 33.3 36.5129 35.5C38.1129 37.7 39.5796 40 40.9129 42.4C42.2462 44.7333 42.9129 47.5333 42.9129 50.8V61.8C42.9129 63.5333 42.6462 65.0333 42.1129 66.3C41.6462 67.5 40.9796 68.5 40.1129 69.3C39.2462 70.1 38.2796 70.6667 37.2129 71C36.1462 71.4 35.0462 71.6 33.9129 71.6H32.5129C31.3796 71.6 30.2796 71.4 29.2129 71C28.1462 70.6667 27.1462 70.1 26.2129 69.3C25.3462 68.5 24.6462 67.5 24.1129 66.3C23.5796 65.0333 23.3129 63.5333 23.3129 61.8V42.8H29.5129V60.8C29.5129 62.6667 29.8129 64 30.4129 64.8C31.0129 65.5333 31.7462 65.9 32.6129 65.9H33.1129C33.9796 65.9 34.6796 65.5333 35.2129 64.8C35.8129 64 36.1129 62.6667 36.1129 60.8V51.9C36.1129 48.7 35.4462 45.9333 34.1129 43.6C32.7796 41.2 31.3129 38.9 29.7129 36.7C28.1129 34.5 26.6462 32.2 25.3129 29.8C23.9796 27.4 23.3129 24.5667 23.3129 21.3V10.3C23.3129 8.56666 23.5796 7.1 24.1129 5.9C24.6462 4.63333 25.3462 3.6 26.2129 2.8C27.0796 2 28.0462 1.43333 29.1129 1.09999C30.1796 0.699995 31.2796 0.499996 32.4129 0.499996H33.4129C34.4796 0.499996 35.5462 0.699995 36.6129 1.09999C37.6796 1.43333 38.6462 2 39.5129 2.8C40.3796 3.6 41.0462 4.63333 41.5129 5.9C42.0462 7.1 42.3129 8.56666 42.3129 10.3V29.2H36.1129ZM73.5668 1.09999V71H67.9668V21.8H67.8668L62.3668 71H57.3668L51.8668 21.8H51.7668V71H46.0668V1.09999H54.8668L59.7668 45.3H59.8668L64.8668 1.09999H73.5668ZM85.0262 71H78.1262V61.8H85.0262V71ZM98.4262 71.6C97.2928 71.6 96.1928 71.4 95.1262 71C94.0595 70.6667 93.0928 70.1 92.2262 69.3C91.4262 68.5 90.7595 67.5 90.2262 66.3C89.6928 65.0333 89.4262 63.5333 89.4262 61.8V10.3C89.4262 8.56666 89.6928 7.1 90.2262 5.9C90.7595 4.63333 91.4262 3.6 92.2262 2.8C93.0928 2 94.0595 1.43333 95.1262 1.09999C96.1928 0.699995 97.2928 0.499996 98.4262 0.499996H100.026C101.093 0.499996 102.16 0.699995 103.226 1.09999C104.36 1.43333 105.326 2 106.126 2.8C106.993 3.6 107.693 4.63333 108.226 5.9C108.76 7.1 109.026 8.56666 109.026 10.3V29.3H102.226V11.2C102.226 9.4 101.96 8.13333 101.426 7.4C100.893 6.6 100.26 6.2 99.5262 6.2H98.9262C98.1928 6.2 97.5595 6.56667 97.0262 7.3C96.4928 8.03333 96.2262 9.36666 96.2262 11.3V60.8C96.2262 62.6667 96.4928 64 97.0262 64.8C97.5595 65.5333 98.1928 65.9 98.9262 65.9H99.5262C100.26 65.9 100.893 65.5333 101.426 64.8C101.96 64 102.226 62.6667 102.226 60.8V48.4H99.2262V42.7H109.026V71H105.726L104.926 68.7C103.993 69.6333 102.993 70.3667 101.926 70.9C100.86 71.3667 99.8928 71.6 99.0262 71.6H98.4262ZM121.18 71.6C120.047 71.6 118.947 71.4 117.88 71C116.813 70.6667 115.847 70.1 114.98 69.3C114.18 68.5 113.513 67.5 112.98 66.3C112.447 65.0333 112.18 63.5333 112.18 61.8V10.3C112.18 8.56666 112.447 7.1 112.98 5.9C113.513 4.63333 114.18 3.6 114.98 2.8C115.847 2 116.813 1.43333 117.88 1.09999C118.947 0.699995 120.047 0.499996 121.18 0.499996H122.78C123.847 0.499996 124.913 0.699995 125.98 1.09999C127.113 1.43333 128.08 2 128.88 2.8C129.747 3.6 130.447 4.63333 130.98 5.9C131.513 7.1 131.78 8.56666 131.78 10.3V29.3H124.98V11.2C124.98 9.4 124.713 8.13333 124.18 7.4C123.647 6.6 123.013 6.2 122.28 6.2H121.68C120.947 6.2 120.313 6.56667 119.78 7.3C119.247 8.03333 118.98 9.36666 118.98 11.3V60.8C118.98 62.6667 119.247 64 119.78 64.8C120.313 65.5333 120.947 65.9 121.68 65.9H122.28C123.013 65.9 123.647 65.5333 124.18 64.8C124.713 64 124.98 62.6667 124.98 60.8V48.4H121.98V42.7H131.78V71H128.48L127.68 68.7C126.747 69.6333 125.747 70.3667 124.68 70.9C123.613 71.3667 122.647 71.6 121.78 71.6H121.18Z" fill="#7B5EB4"/>
</svg>
