<svg width="93" height="51" viewBox="0 0 93 51" fill="none" xmlns="http://www.w3.org/2000/svg">
<path d="M0.626211 50V1.07H8.04621C8.79288 1.07 9.53954 1.18666 10.2862 1.42C11.0795 1.65333 11.7562 2.05 12.3162 2.61C12.9229 3.12333 13.4129 3.8 13.7862 4.64C14.1595 5.48 14.3462 6.50666 14.3462 7.72V43.35C14.3462 44.5633 14.1595 45.59 13.7862 46.43C13.4129 47.27 12.9229 47.97 12.3162 48.53C11.7562 49.0433 11.0795 49.4167 10.2862 49.65C9.53954 49.8833 8.79288 50 8.04621 50H0.626211ZM5.38621 5.06V46.01H7.69621C8.20954 46.01 8.65288 45.7767 9.02621 45.31C9.39955 44.7967 9.58621 43.91 9.58621 42.65V8.42C9.58621 7.16 9.39955 6.29666 9.02621 5.83C8.65288 5.31666 8.20954 5.06 7.69621 5.06H5.38621ZM25.579 20.74V8.14C25.579 6.88 25.3924 5.99333 25.019 5.48C24.6457 4.92 24.2024 4.64 23.689 4.64H23.269C22.7557 4.64 22.3124 4.89667 21.939 5.41C21.5657 5.92333 21.379 6.85666 21.379 8.21V14.44C21.379 16.68 21.8457 18.64 22.779 20.32C23.7124 22 24.739 23.61 25.859 25.15C26.979 26.69 28.0057 28.3 28.939 29.98C29.8724 31.6133 30.339 33.5733 30.339 35.86V43.56C30.339 44.7733 30.1524 45.8233 29.779 46.71C29.4524 47.55 28.9857 48.25 28.379 48.81C27.7724 49.37 27.0957 49.7667 26.349 50C25.6024 50.28 24.8324 50.42 24.039 50.42H23.059C22.2657 50.42 21.4957 50.28 20.749 50C20.0024 49.7667 19.3024 49.37 18.649 48.81C18.0424 48.25 17.5524 47.55 17.179 46.71C16.8057 45.8233 16.619 44.7733 16.619 43.56V30.26H20.959V42.86C20.959 44.1667 21.169 45.1 21.589 45.66C22.009 46.1733 22.5224 46.43 23.129 46.43H23.479C24.0857 46.43 24.5757 46.1733 24.949 45.66C25.369 45.1 25.579 44.1667 25.579 42.86V36.63C25.579 34.39 25.1124 32.4533 24.179 30.82C23.2457 29.14 22.219 27.53 21.099 25.99C19.979 24.45 18.9524 22.84 18.019 21.16C17.0857 19.48 16.619 17.4967 16.619 15.21V7.51C16.619 6.29666 16.8057 5.27 17.179 4.43C17.5524 3.54333 18.0424 2.82 18.649 2.26C19.2557 1.7 19.9324 1.30333 20.679 1.07C21.4257 0.789997 22.1957 0.649997 22.989 0.649997H23.689C24.4357 0.649997 25.1824 0.789997 25.929 1.07C26.6757 1.30333 27.3524 1.7 27.959 2.26C28.5657 2.82 29.0324 3.54333 29.359 4.43C29.7324 5.27 29.919 6.29666 29.919 7.51V20.74H25.579ZM51.7968 1.07V50H47.8768V15.56H47.8068L43.9568 50H40.4568L36.6068 15.56H36.5368V50H32.5468V1.07H38.7068L42.1368 32.01H42.2068L45.7068 1.07H51.7968ZM59.8183 50H54.9883V43.56H59.8183V50ZM69.1983 50.42C68.405 50.42 67.635 50.28 66.8883 50C66.1417 49.7667 65.465 49.37 64.8583 48.81C64.2983 48.25 63.8317 47.55 63.4583 46.71C63.085 45.8233 62.8983 44.7733 62.8983 43.56V7.51C62.8983 6.29666 63.085 5.27 63.4583 4.43C63.8317 3.54333 64.2983 2.82 64.8583 2.26C65.465 1.7 66.1417 1.30333 66.8883 1.07C67.635 0.789997 68.405 0.649997 69.1983 0.649997H70.3183C71.065 0.649997 71.8117 0.789997 72.5583 1.07C73.3517 1.30333 74.0283 1.7 74.5883 2.26C75.195 2.82 75.685 3.54333 76.0583 4.43C76.4317 5.27 76.6183 6.29666 76.6183 7.51V20.81H71.8583V8.14C71.8583 6.88 71.6717 5.99333 71.2983 5.48C70.925 4.92 70.4817 4.64 69.9683 4.64H69.5483C69.035 4.64 68.5917 4.89667 68.2183 5.41C67.845 5.92333 67.6583 6.85666 67.6583 8.21V42.86C67.6583 44.1667 67.845 45.1 68.2183 45.66C68.5917 46.1733 69.035 46.43 69.5483 46.43H69.9683C70.4817 46.43 70.925 46.1733 71.2983 45.66C71.6717 45.1 71.8583 44.1667 71.8583 42.86V34.18H69.7583V30.19H76.6183V50H74.3083L73.7483 48.39C73.095 49.0433 72.395 49.5567 71.6483 49.93C70.9017 50.2567 70.225 50.42 69.6183 50.42H69.1983ZM85.1261 50.42C84.3327 50.42 83.5627 50.28 82.8161 50C82.0694 49.7667 81.3927 49.37 80.7861 48.81C80.2261 48.25 79.7594 47.55 79.3861 46.71C79.0127 45.8233 78.8261 44.7733 78.8261 43.56V7.51C78.8261 6.29666 79.0127 5.27 79.3861 4.43C79.7594 3.54333 80.2261 2.82 80.7861 2.26C81.3927 1.7 82.0694 1.30333 82.8161 1.07C83.5627 0.789997 84.3327 0.649997 85.1261 0.649997H86.2461C86.9927 0.649997 87.7394 0.789997 88.4861 1.07C89.2794 1.30333 89.9561 1.7 90.5161 2.26C91.1227 2.82 91.6127 3.54333 91.9861 4.43C92.3594 5.27 92.5461 6.29666 92.5461 7.51V20.81H87.7861V8.14C87.7861 6.88 87.5994 5.99333 87.2261 5.48C86.8527 4.92 86.4094 4.64 85.8961 4.64H85.4761C84.9627 4.64 84.5194 4.89667 84.1461 5.41C83.7727 5.92333 83.5861 6.85666 83.5861 8.21V42.86C83.5861 44.1667 83.7727 45.1 84.1461 45.66C84.5194 46.1733 84.9627 46.43 85.4761 46.43H85.8961C86.4094 46.43 86.8527 46.1733 87.2261 45.66C87.5994 45.1 87.7861 44.1667 87.7861 42.86V34.18H85.6861V30.19H92.5461V50H90.2361L89.6761 48.39C89.0227 49.0433 88.3227 49.5567 87.5761 49.93C86.8294 50.2567 86.1527 50.42 85.5461 50.42H85.1261Z" fill="#7B5EB4"/>
</svg>
